<svg id="Layer_1" data-name="Layer 1" xmlns="http://www.w3.org/2000/svg" viewBox="0 0 25.16 30.39"><defs><style>.cls-1{fill:#221f1f;}</style></defs><title>icon_arrow_3</title><path class="cls-1" d="M-47.26,887.51a1.52,1.52,0,0,0-.55.11h0a1.49,1.49,0,0,0-.49.33l-11,11a1.5,1.5,0,0,0,0,2.12,1.5,1.5,0,0,0,2.12,0l8.47-8.47v23.77a1.5,1.5,0,0,0,1.5,1.5,1.5,1.5,0,0,0,1.5-1.5V892.63l8.57,8.57a1.5,1.5,0,0,0,2.12,0,1.49,1.49,0,0,0,.44-1.06,1.5,1.5,0,0,0-.44-1.06L-46.2,888a1.49,1.49,0,0,0-.49-0.33h0a1.52,1.52,0,0,0-.55-0.11" transform="translate(59.8 -887.51)"/></svg>