<svg id="Layer_1" data-name="Layer 1" xmlns="http://www.w3.org/2000/svg" viewBox="0 0 63.58 62.77"><title>icon_gear</title><path d="M531.1,569.59a1.48,1.48,0,0,0-.3-0.59,6,6,0,0,0-4.83-2.2,1.51,1.51,0,0,0-.33,0,2.94,2.94,0,0,1-2.5-1.52l0-.07c-0.29-.55-0.61-1.1-0.95-1.64l0-.08a2.9,2.9,0,0,1-.07-3,1.48,1.48,0,0,0,.15-0.27,6,6,0,0,0,.48-5.33,1.51,1.51,0,0,0-.35-0.53,32.1,32.1,0,0,0-3.4-2.87,1.5,1.5,0,0,0-.58-0.26,6,6,0,0,0-5.19,1.39,1.48,1.48,0,0,0-.24.2,2.88,2.88,0,0,1-1.82.64,3.48,3.48,0,0,1-1.14-.21h0c-0.63-.26-1.26-0.49-1.89-0.69h0a2.91,2.91,0,0,1-2-2.23A1.42,1.42,0,0,0,506,550a6,6,0,0,0-3.11-4.42,1.49,1.49,0,0,0-.6-0.17,28.28,28.28,0,0,0-4.39,0,1.5,1.5,0,0,0-.61.17,6,6,0,0,0-3.12,4.45,1.62,1.62,0,0,0-.05.25,2.92,2.92,0,0,1-2,2.26c-0.62.2-1.26,0.43-1.89,0.69h0a3.43,3.43,0,0,1-1.12.2,2.84,2.84,0,0,1-1.82-.64,1.4,1.4,0,0,0-.24-0.19,6,6,0,0,0-5.2-1.39,1.49,1.49,0,0,0-.58.26,32,32,0,0,0-3.4,2.87,1.48,1.48,0,0,0-.35.53,6,6,0,0,0,.5,5.36,1.51,1.51,0,0,0,.12.23,2.9,2.9,0,0,1-.05,3l0,0.09c-0.35.56-.67,1.12-0.94,1.63l0,0.07a3,3,0,0,1-2.54,1.55,1.47,1.47,0,0,0-.31,0,6,6,0,0,0-4.82,2.2,1.52,1.52,0,0,0-.3.59,32.1,32.1,0,0,0-.78,4.52,1.51,1.51,0,0,0,.08.65,6,6,0,0,0,3.76,3.68,1.46,1.46,0,0,0,.29.11,2.91,2.91,0,0,1,1.85,2.29s0,0.08,0,.12c0.09,0.64.2,1.26,0.33,1.87v0.05a2.91,2.91,0,0,1-.95,2.82,1.48,1.48,0,0,0-.23.2,6,6,0,0,0-2.28,4.65,1.5,1.5,0,0,0,.15.67,31.87,31.87,0,0,0,2.41,4.13,1.5,1.5,0,0,0,.51.46,6.07,6.07,0,0,0,5.12.32,1.46,1.46,0,0,0,.3-0.1,2.73,2.73,0,0,1,.94-0.16,3.13,3.13,0,0,1,2,.77l0,0c0.44,0.4.92,0.8,1.44,1.2l0.07,0.07a2.91,2.91,0,0,1,1.09,2.77,1.39,1.39,0,0,0,0,.3,6,6,0,0,0,1.16,4.94,1.5,1.5,0,0,0,.56.44,31.75,31.75,0,0,0,4.63,1.68,1.5,1.5,0,0,0,.71,0,6,6,0,0,0,4.05-3,1.4,1.4,0,0,0,.16-0.27,2.94,2.94,0,0,1,2.62-1.42h0.09c0.62,0,1.23,0,1.85,0h0.1a2.91,2.91,0,0,1,2.61,1.42,1.47,1.47,0,0,0,.16.27,6,6,0,0,0,4.05,3,1.53,1.53,0,0,0,.31,0,1.47,1.47,0,0,0,.4-0.05,31.86,31.86,0,0,0,4.63-1.68,1.49,1.49,0,0,0,.56-0.44,6,6,0,0,0,1.18-4.82v0a1.48,1.48,0,0,0-.09-0.52,3,3,0,0,1,1.12-2.66l0.06-.06c0.53-.42,1-0.81,1.44-1.21l0,0a3.09,3.09,0,0,1,2-.75,2.74,2.74,0,0,1,.94.16,1.47,1.47,0,0,0,.29.1,5.93,5.93,0,0,0,2.22.43,6,6,0,0,0,2.91-.75,1.52,1.52,0,0,0,.51-0.46,31.94,31.94,0,0,0,2.4-4.13,1.5,1.5,0,0,0,.15-0.67,6,6,0,0,0-2.28-4.65,1.42,1.42,0,0,0-.24-0.21,2.89,2.89,0,0,1-1-2.76l0-.11c0.13-.6.24-1.23,0.33-1.87l0-.09a2.91,2.91,0,0,1,1.86-2.33,1.43,1.43,0,0,0,.29-0.11,6,6,0,0,0,3.77-3.68,1.47,1.47,0,0,0,.08-0.65,31.86,31.86,0,0,0-.78-4.52m-4.15,6.05a1.47,1.47,0,0,0-.31.12,6,6,0,0,0-3.67,4.45l0,0.12a1.23,1.23,0,0,0,0,.13c-0.08.63-.19,1.25-0.32,1.84l0,0.12v0.08a6,6,0,0,0,1.92,5.45,1.41,1.41,0,0,0,.25.23,3,3,0,0,1,1.25,2.1,29,29,0,0,1-1.79,3.07,3,3,0,0,1-1.16.24,3,3,0,0,1-1.26-.28,1.44,1.44,0,0,0-.34-0.11,5.79,5.79,0,0,0-1.85-.3,6.09,6.09,0,0,0-3.8,1.37l-0.08.06-0.08.07c-0.43.39-.9,0.78-1.43,1.2l-0.09.08-0.09.09a6,6,0,0,0-2,5.4,1.46,1.46,0,0,0,0,.33,3,3,0,0,1-.35,2.36,28.93,28.93,0,0,1-3.44,1.25,3,3,0,0,1-1.78-1.58,1.6,1.6,0,0,0-.18-0.28,6,6,0,0,0-5-2.84H501c-0.61,0-1.23,0-1.85,0h-0.24a6,6,0,0,0-5,2.84,1.52,1.52,0,0,0-.18.29,3,3,0,0,1-1.78,1.58,28.56,28.56,0,0,1-3.44-1.25,3,3,0,0,1-.35-2.36,1.53,1.53,0,0,0,0-.33,6,6,0,0,0-2-5.4l-0.1-.1-0.08-.07c-0.53-.41-1-0.8-1.43-1.2l-0.12-.1,0,0a6.08,6.08,0,0,0-3.79-1.36,5.81,5.81,0,0,0-1.84.3,1.57,1.57,0,0,0-.35.11,3,3,0,0,1-2.42,0,28.89,28.89,0,0,1-1.79-3.07,3,3,0,0,1,1.25-2.1,1.51,1.51,0,0,0,.25-0.22,6,6,0,0,0,1.92-5.43s0-.07,0-0.11l0-.12c-0.13-.59-0.24-1.21-0.32-1.84a1.14,1.14,0,0,0,0-.13l0-.11a6,6,0,0,0-3.66-4.45,1.55,1.55,0,0,0-.32-0.13,3,3,0,0,1-1.92-1.6,29.13,29.13,0,0,1,.58-3.37,3,3,0,0,1,2.36-.86,1.37,1.37,0,0,0,.36,0,5.92,5.92,0,0,0,4.94-2.93,1.36,1.36,0,0,0,.11-0.18c0.29-.54.6-1.09,0.94-1.62l0.07-.12,0-.09a6,6,0,0,0,.06-5.77,1.45,1.45,0,0,0-.16-0.3,3,3,0,0,1-.42-2.51,29.33,29.33,0,0,1,2.54-2.14,3,3,0,0,1,2.42.85,1.44,1.44,0,0,0,.29.22,5.86,5.86,0,0,0,3.65,1.27,6.31,6.31,0,0,0,2-.34l0.09,0,0.1,0c0.61-.25,1.22-0.47,1.81-0.66l0.1,0,0.05,0a6,6,0,0,0,3.77-4.39,1.55,1.55,0,0,0,.07-0.33,3,3,0,0,1,1.32-2.21,24.75,24.75,0,0,1,3.27,0,3,3,0,0,1,1.32,2.21,1.44,1.44,0,0,0,.07.32,6,6,0,0,0,3.77,4.4l0.05,0,0.1,0c0.6,0.19,1.21.41,1.81,0.66l0.1,0,0.08,0a6.42,6.42,0,0,0,2,.34,5.87,5.87,0,0,0,3.64-1.26A1.48,1.48,0,0,0,515,555a3,3,0,0,1,2.42-.85,29.09,29.09,0,0,1,2.54,2.14,3,3,0,0,1-.42,2.51,1.51,1.51,0,0,0-.16.29,6,6,0,0,0,.05,5.77L519.5,565l0.06,0.1c0.34,0.53.65,1.08,1,1.69l0.06,0.1a6,6,0,0,0,4.94,2.94,1.54,1.54,0,0,0,.37,0,3,3,0,0,1,2.36.86,28.86,28.86,0,0,1,.59,3.37,3,3,0,0,1-1.92,1.6" transform="translate(-468.31 -545.36)" fill="#221f1f"/><path d="M500.11,561.44A15.86,15.86,0,1,0,516,577.3a15.88,15.88,0,0,0-15.86-15.86m0,28.72A12.86,12.86,0,1,1,513,577.3a12.87,12.87,0,0,1-12.86,12.86" transform="translate(-468.31 -545.36)" fill="#221f1f"/></svg>