<svg id="Layer_1" data-name="Layer 1" xmlns="http://www.w3.org/2000/svg" viewBox="0 0 47.2 29.74"><defs><style>.cls-1{fill:#fff;}</style></defs><title>icon_be</title><path class="cls-1" d="M-810.5,335.62H-811a3.22,3.22,0,0,0-.43-0.06H-825.9V305.94h14.24a2.78,2.78,0,0,0,.4-0.06h0.59l0.21,0.06c0.92,0.14,1.85.24,2.76,0.42a7.14,7.14,0,0,1,2.73,1.2,5.62,5.62,0,0,1,2.19,3.09,8.71,8.71,0,0,1,.12,4.57,6.28,6.28,0,0,1-3.46,4.07l-0.33.18,0.35,0.11a6.81,6.81,0,0,1,4.53,4.18,9.34,9.34,0,0,1,.52,4.05,7.44,7.44,0,0,1-3,5.63,11.05,11.05,0,0,1-5.19,2Zm-8.84-13.25v8.15h0.21c2.27,0,4.54,0,6.81,0a9.3,9.3,0,0,0,2.12-.29,3.23,3.23,0,0,0,2.52-2.42,5.42,5.42,0,0,0,.06-2.22,3.29,3.29,0,0,0-1.39-2.36,5.69,5.69,0,0,0-3.25-.85h-7.07Zm0-11.41v7h6.44a8.83,8.83,0,0,0,1-.06,4.26,4.26,0,0,0,1.71-.59,3.07,3.07,0,0,0,1.4-2.7,3,3,0,0,0-2.32-3.32,9.67,9.67,0,0,0-2.21-.28c-1.91,0-3.81,0-5.72,0h-0.33Z" transform="translate(825.9 -305.88)"/><path class="cls-1" d="M-788.44,335.62h-1.77a0.44,0.44,0,0,0-.12-0.06c-0.55-.08-1.11-0.13-1.66-0.24a9.53,9.53,0,0,1-6.88-5.22,12.69,12.69,0,0,1-.84-9.18,10.24,10.24,0,0,1,6.8-7.36,11.47,11.47,0,0,1,5.38-.48,9.26,9.26,0,0,1,5.88,3.07,11.59,11.59,0,0,1,2.77,6.2l0.18,1.18v2.24H-794l-0.28,0c0.09,0.59.14,1.17,0.26,1.73a4,4,0,0,0,1.8,2.83,5.94,5.94,0,0,0,6.09.1,3.71,3.71,0,0,0,1.73-1.79,0.33,0.33,0,0,1,.36-0.24h4.66l0.27,0a11.48,11.48,0,0,1-2.2,4.09,9.22,9.22,0,0,1-5.7,2.92C-787.49,335.52-788,335.56-788.44,335.62Zm-5.8-13.64h9.58a7.74,7.74,0,0,0-1.08-2.89,3.31,3.31,0,0,0-2.31-1.53,9.35,9.35,0,0,0-1.87-.11A4.51,4.51,0,0,0-794.23,322Z" transform="translate(825.9 -305.88)"/><path class="cls-1" d="M-825.9,335.56h14.44a3.22,3.22,0,0,1,.43.06h-14.6A1.28,1.28,0,0,1-825.9,335.56Z" transform="translate(825.9 -305.88)"/><path class="cls-1" d="M-811.27,305.88a2.78,2.78,0,0,1-.4.06H-825.9a1.28,1.28,0,0,1,.27-0.06h14.37Z" transform="translate(825.9 -305.88)"/><path class="cls-1" d="M-795.25,310.71v-3.29h12v3.29h-12Z" transform="translate(825.9 -305.88)"/></svg>