<svg id="Layer_1" data-name="Layer 1" xmlns="http://www.w3.org/2000/svg" viewBox="0 0 61.13 61.13"><defs><style>.cls-1{fill:#221f1f;}</style></defs><title>icon_technology</title><path class="cls-1" d="M127.59,1391.92a30.39,30.39,0,0,0,2.24-19.55A30.53,30.53,0,0,0,93.47,1349,30.49,30.49,0,0,0,76,1397.81a1.42,1.42,0,0,0,.18.28,1.54,1.54,0,0,0,.25.24,30.48,30.48,0,0,0,42.5,4.48l0,0,0.08-.08a30.72,30.72,0,0,0,8.41-10.6l0.05-.08s0-.07,0-0.11M126.9,1373a27.4,27.4,0,0,1-1.45,16.36l-24-11.43,0-26.55A27.7,27.7,0,0,1,126.9,1373m-50.11-9a27.57,27.57,0,0,1,21.64-12.63l0,26.8L77.67,1395a27.4,27.4,0,0,1-.88-31m29.07,41.81a27.39,27.39,0,0,1-26.29-8.48L99.75,1381l16.19,20.34a27.39,27.39,0,0,1-10.09,4.46m12.43-6.34L105.2,1383l18.95,9a27.76,27.76,0,0,1-5.87,7.39" transform="translate(-69.41 -1348.32)"/></svg>