<svg id="Layer_1" data-name="Layer 1" xmlns="http://www.w3.org/2000/svg" viewBox="0 0 49.93 60.92"><title>icon_house</title><path d="M125.22,371.38a7.29,7.29,0,0,0-1.91-4.14l-0.08-.09-2-1.9s0-.09,0-0.14V350.38a3.06,3.06,0,0,0-3.06-3.06h-5.33a3.06,3.06,0,0,0-3.06,3.06v3.94l-4.8-4.59a7.65,7.65,0,0,0-4.92-2A7.32,7.32,0,0,0,94.94,350L77.7,366.74A8.29,8.29,0,0,0,76,369.06l0,0.09a6.76,6.76,0,0,0-.66,2.39s0,0.07,0,.1v33.72a2.88,2.88,0,0,0,2.88,2.88H92.29a2.88,2.88,0,0,0,2.88-2.88v-5.52a1.43,1.43,0,0,0,0-.28v-11.3h10.32v17.1a2.88,2.88,0,0,0,2.88,2.88h14a2.88,2.88,0,0,0,2.88-2.88V371.52a1.47,1.47,0,0,0,0-.15m-12.36-21.06,5.39,0.06v12l-5.44-5.21ZM97,352.17a4.45,4.45,0,0,1,3-1.47,4.59,4.59,0,0,1,2.88,1.22l17,16.29H80.49Zm25.19,53.07H108.51V386.77a1.5,1.5,0,0,0-1.5-1.5H93.69a1.5,1.5,0,0,0-1.5,1.5v12.52a1.45,1.45,0,0,0,0,.28v5.67H78.29V371.7a3.51,3.51,0,0,1,.08-0.49h43.78a3.56,3.56,0,0,1,.08.4v33.64Z" transform="translate(-75.29 -347.32)" fill="#221f1f"/></svg>