<svg id="Layer_1" data-name="Layer 1" xmlns="http://www.w3.org/2000/svg" viewBox="0 0 67 53.58"><defs><style>.cls-1{fill:#221f1f;}</style></defs><title>icon_case</title><path class="cls-1" d="M327.47,560.14H312.22v-5.81a4.16,4.16,0,0,0-4.16-4.16h-16a4.16,4.16,0,0,0-4.16,4.16v5.81h-15.2a6.14,6.14,0,0,0-6.13,6.13v31.35a6.14,6.14,0,0,0,6.13,6.13h54.73a6.14,6.14,0,0,0,6.13-6.13V566.27a6.14,6.14,0,0,0-6.13-6.13m-38,3h23.48v37.62H287.29V563.14h2.15Zm1.5-8.81a1.16,1.16,0,0,1,1.16-1.16h16a1.16,1.16,0,0,1,1.16,1.16v5.81H290.94v-5.81ZM269.6,597.62V566.27a3.14,3.14,0,0,1,3.13-3.13h3.87v37.62h-3.87a3.14,3.14,0,0,1-3.13-3.13m10-34.48h4.68v37.62H279.6V563.14Zm36.32,0h4.69v37.62h-4.69V563.14Zm14.68,34.48a3.14,3.14,0,0,1-3.13,3.13h-3.87V563.14h3.87a3.14,3.14,0,0,1,3.13,3.13v31.35Z" transform="translate(-266.6 -550.17)"/></svg>