<svg id="Layer_1" data-name="Layer 1" xmlns="http://www.w3.org/2000/svg" width="41.45" height="58.91" viewBox="0 0 41.45 58.91">
  <defs>
    <style>
      .cls-1 {
        fill: #1a1a23;
      }
    </style>
  </defs>
  <title>icon-pin</title>
  <path class="cls-1" d="M41,16.67A20.63,20.63,0,0,0,20.81,0a21.94,21.94,0,0,0-4.14.4A20.62,20.62,0,0,0,.39,24.61l0,.21A43.39,43.39,0,0,0,4,34.73,122.61,122.61,0,0,0,14.95,53c1,1.48,2.13,2.95,3.21,4.42v.05l.24.32.08.1a2.9,2.9,0,0,0,2.18,1.08,3.14,3.14,0,0,0,2.43-1.34c3.22-4.24,6-8.32,8.59-12.46a81,81,0,0,0,8.7-17.9A20.66,20.66,0,0,0,41,16.65m-3.5,9.67a78.19,78.19,0,0,1-8.39,17.22c-2.51,4.06-5.27,8.06-8.39,12.17l-.06.06-.1-.14v-.06h0c-1.08-1.46-2.15-2.91-3.17-4.36A119.84,119.84,0,0,1,6.71,33.43a40.79,40.79,0,0,1-3.34-9.22A17.63,17.63,0,0,1,6,10.82,17.43,17.43,0,0,1,17.24,3.35,18.87,18.87,0,0,1,20.81,3,17.74,17.74,0,0,1,37.55,26.32"/>
  <path class="cls-1" d="M20.55,10.88a9.57,9.57,0,1,0,9.57,9.57h0a9.58,9.58,0,0,0-9.57-9.57m0,16.14a6.57,6.57,0,1,1,6.57-6.57h0A6.58,6.58,0,0,1,20.55,27"/>
</svg>
