<svg id="Layer_1" data-name="Layer 1" xmlns="http://www.w3.org/2000/svg" viewBox="0 0 49.52 67"><defs><style>.cls-1{fill:#221f1f;}</style></defs><title>icon_services</title><path class="cls-1" d="M320.89,843.38H279.32a4,4,0,0,0-4,4v59a4,4,0,0,0,4,4h41.56a4,4,0,0,0,4-4v-59a4,4,0,0,0-4-4m1,63a1,1,0,0,1-1,1H279.32a1,1,0,0,1-1-1v-59a1,1,0,0,1,1-1h41.56a1,1,0,0,1,1,1v59Z" transform="translate(-275.35 -843.38)"/><path class="cls-1" d="M313.44,888.88H296.06a1.5,1.5,0,0,0,0,3h17.38a1.5,1.5,0,0,0,0-3" transform="translate(-275.35 -843.38)"/><path class="cls-1" d="M313.44,897.88H296.06a1.5,1.5,0,0,0,0,3h17.38a1.5,1.5,0,0,0,0-3" transform="translate(-275.35 -843.38)"/><path class="cls-1" d="M313.44,880H296.06a1.5,1.5,0,0,0,0,3h17.38a1.5,1.5,0,0,0,0-3" transform="translate(-275.35 -843.38)"/><path class="cls-1" d="M313.44,871.13H296.06a1.5,1.5,0,0,0,0,3h17.38a1.5,1.5,0,0,0,0-3" transform="translate(-275.35 -843.38)"/><path class="cls-1" d="M296.06,865.25H313.3a1.5,1.5,0,0,0,0-3H296.06a1.5,1.5,0,0,0,0,3" transform="translate(-275.35 -843.38)"/><path class="cls-1" d="M296.06,856.38H313.3a1.5,1.5,0,0,0,0-3H296.06a1.5,1.5,0,0,0,0,3" transform="translate(-275.35 -843.38)"/><path class="cls-1" d="M288.39,851.67l-2.67,2.67-0.51-.51a1.5,1.5,0,0,0-2.12,2.12l1.57,1.57a1.5,1.5,0,0,0,2.12,0l3.73-3.73a1.5,1.5,0,0,0-2.12-2.12" transform="translate(-275.35 -843.38)"/><path class="cls-1" d="M288.39,860.83l-2.67,2.67-0.51-.51a1.5,1.5,0,0,0-2.12,2.12l1.57,1.57a1.5,1.5,0,0,0,2.12,0l3.73-3.73a1.5,1.5,0,0,0-2.12-2.12" transform="translate(-275.35 -843.38)"/><path class="cls-1" d="M288.39,869.7l-2.67,2.67-0.51-.51a1.5,1.5,0,0,0-2.12,2.12l1.57,1.57a1.5,1.5,0,0,0,2.12,0l3.73-3.73a1.5,1.5,0,0,0-2.12-2.12" transform="translate(-275.35 -843.38)"/><path class="cls-1" d="M288.39,878.58l-2.67,2.67-0.51-.51a1.5,1.5,0,1,0-2.12,2.12l1.57,1.57a1.5,1.5,0,0,0,2.12,0l3.73-3.73a1.5,1.5,0,0,0-2.12-2.12" transform="translate(-275.35 -843.38)"/><path class="cls-1" d="M288.39,887.45l-2.67,2.67-0.51-.51a1.5,1.5,0,0,0-2.12,2.12l1.57,1.57a1.5,1.5,0,0,0,2.12,0l3.73-3.73a1.5,1.5,0,1,0-2.12-2.12" transform="translate(-275.35 -843.38)"/><path class="cls-1" d="M288.39,896.42l-2.67,2.67-0.51-.51a1.5,1.5,0,0,0-2.12,2.12l1.57,1.57a1.5,1.5,0,0,0,2.12,0l3.73-3.73a1.5,1.5,0,1,0-2.12-2.12" transform="translate(-275.35 -843.38)"/></svg>