<svg id="Layer_1" data-name="Layer 1" xmlns="http://www.w3.org/2000/svg" viewBox="0 0 41.45 58.91"><title>icon_pin</title><path d="M1120.49,1165a20.63,20.63,0,0,0-20.23-16.65,21.94,21.94,0,0,0-4.14.4,20.62,20.62,0,0,0-16.24,24.4,43.39,43.39,0,0,0,3.57,9.91,122.62,122.62,0,0,0,10.95,18.23c1,1.48,2.13,2.95,3.21,4.42l0,0.05,0.24,0.32,0.08,0.1a2.9,2.9,0,0,0,2.18,1.08,3.14,3.14,0,0,0,2.43-1.34c3.22-4.24,6-8.32,8.59-12.46a81,81,0,0,0,8.7-17.9,20.66,20.66,0,0,0,.63-10.58m-3.5,9.67a78.19,78.19,0,0,1-8.39,17.22c-2.51,4.06-5.27,8.06-8.39,12.17l-0.06.06-0.1-.14,0-.06h0c-1.08-1.46-2.15-2.91-3.17-4.36a119.84,119.84,0,0,1-10.69-17.78,40.79,40.79,0,0,1-3.34-9.22,17.63,17.63,0,0,1,2.63-13.39,17.43,17.43,0,0,1,11.24-7.47,18.88,18.88,0,0,1,3.57-.35,17.74,17.74,0,0,1,16.74,23.32" transform="translate(-1079.45 -1148.33)" fill="#1a1a23"/><path d="M1100,1159.21a9.57,9.57,0,1,0,9.57,9.57,9.58,9.58,0,0,0-9.57-9.57m0,16.14a6.57,6.57,0,1,1,6.57-6.57,6.58,6.58,0,0,1-6.57,6.57" transform="translate(-1079.45 -1148.33)" fill="#1a1a23"/></svg>