<svg id="Layer_1" data-name="Layer 1" xmlns="http://www.w3.org/2000/svg" viewBox="0 0 43.7 47.68"><title>icon_person</title><path d="M1281.12,512.55c0.09,0.11.9,0.77,1,.85a32.43,32.43,0,0,0,41.4.13,14,14,0,0,0,1.28-1.07l-0.72-3.53a21.64,21.64,0,0,0-11-14.82,12.94,12.94,0,1,0-20.38,0A21.63,21.63,0,0,0,1281.8,509S1281.21,511.76,1281.12,512.55Zm21.79-36.31a9.94,9.94,0,1,1-9.94,9.94A9.95,9.95,0,0,1,1302.91,476.24Zm0,41.68a29.35,29.35,0,0,1-18.43-6.49,18.94,18.94,0,0,1,10.46-15.09,12.86,12.86,0,0,0,16,0,18.75,18.75,0,0,1,10.52,15A29.36,29.36,0,0,1,1302.91,517.93Z" transform="translate(-1281.12 -473.24)" fill="#221f1f"/></svg>