<svg id="Layer_1" data-name="Layer 1" xmlns="http://www.w3.org/2000/svg" viewBox="0 0 593.89 256.71"><title>logo_quicknews</title><path d="M322.7,1314.67l-15.23,15.94-44.41-45.05a71.56,71.56,0,0,1-38.48,11.27q-30.32,0-50.92-21.57t-20.6-51.88q0-29.35,21.09-50.63t50.43-21.27q30.32,0,50.92,21.56t20.6,51.89q0,27.4-16.52,46.05Zm-48-91.7q0-20.2-14.87-35.47t-35.08-15.25q-20.41,0-35.28,15.25t-14.87,35.86A52.32,52.32,0,0,0,189,1260.1q14.78,16.12,35.77,16.13,21.75,0,36.14-15.94Q274.71,1244.94,274.72,1223Z" transform="translate(-153.06 -1151.46)" fill="#1d1c21"/><path d="M322.53,1154.17h21.17v89q0,16.52,4.09,23.91,5.45,10.49,20.4,10.5,14,0,19.44-10.89,3.71-7.57,3.7-23.51v-89h21V1243q0,54-43.73,54-46.06,0-46.06-54v-88.82Z" transform="translate(-153.06 -1151.46)" fill="#1d1c21"/><path d="M465.76,1154.17V1294.1h-21V1154.17h21Z" transform="translate(-153.06 -1151.46)" fill="#1d1c21"/><path d="M599.75,1258.54H625.4q-18.66,38.29-62.77,38.29-29.94,0-50.53-21.67t-20.6-51.78q0-29.35,21.09-50.63T563,1151.46q21.19,0,37.5,10.19t24.88,29.25H600.92q-13.61-18.65-38.29-18.65-20.21,0-34.88,15.45t-14.68,35.67a52.7,52.7,0,0,0,14.19,36.73q14.58,16.12,35.37,16.13Q587.12,1276.22,599.75,1258.54Z" transform="translate(-153.06 -1151.46)" fill="#1d1c21"/><path d="M667.82,1154.17v69l52.67-69h25.26l-54.61,69.77,53.45,70.16H718l-50.15-68.21v68.21h-21V1154.17h21Z" transform="translate(-153.06 -1151.46)" fill="#1d1c21"/><path d="M445,1332.49h22.11l31.38,51.3h0.21v-51.3h16.27v73.81H493.67l-32.22-52.54h-0.21v52.54H445v-73.81Z" transform="translate(-153.06 -1151.46)" fill="#1d1c21"/><path d="M528.43,1332.49h50.15v15H544.69v13.76h32v15h-32v15h35.76v15h-52v-73.81Z" transform="translate(-153.06 -1151.46)" fill="#1d1c21"/><path d="M587.07,1332.49H604.8l11.78,47.33h0.21l15.43-47.33h15.12l15.32,48.58h0.2l12.4-48.58h16.47l-21.58,73.81H655.68l-16.27-51.08h-0.22l-16.26,51.08H609Z" transform="translate(-153.06 -1151.46)" fill="#1d1c21"/><path d="M735.68,1350.52a11.59,11.59,0,0,0-5.37-3.7,19.37,19.37,0,0,0-6.42-1.2,17.2,17.2,0,0,0-3.65.41,13.73,13.73,0,0,0-3.54,1.31,7.85,7.85,0,0,0-2.72,2.34,6,6,0,0,0-1,3.55,5.88,5.88,0,0,0,2.5,5.11,23.62,23.62,0,0,0,6.31,3c2.54,0.84,5.27,1.67,8.19,2.5a34.17,34.17,0,0,1,8.19,3.55,19.48,19.48,0,0,1,6.3,6.15c1.67,2.57,2.5,6,2.5,10.32a23.78,23.78,0,0,1-2.29,10.74,21.88,21.88,0,0,1-6.21,7.61,26.63,26.63,0,0,1-9.07,4.48,39.92,39.92,0,0,1-10.9,1.46,39.5,39.5,0,0,1-13.35-2.19,33.38,33.38,0,0,1-11.47-7.08l11.57-12.72a16.93,16.93,0,0,0,6.31,5.15,17.64,17.64,0,0,0,11.88,1.36,13.07,13.07,0,0,0,3.65-1.41,8.08,8.08,0,0,0,2.62-2.4,6.07,6.07,0,0,0,1-3.44,6.25,6.25,0,0,0-2.56-5.27,23.87,23.87,0,0,0-6.41-3.28c-2.57-.9-5.35-1.81-8.33-2.71a37.14,37.14,0,0,1-8.35-3.65,20,20,0,0,1-6.41-6c-1.7-2.51-2.56-5.8-2.56-9.9a22.22,22.22,0,0,1,2.35-10.43,22.48,22.48,0,0,1,6.26-7.5,27.24,27.24,0,0,1,9-4.54,37,37,0,0,1,10.53-1.5,41.43,41.43,0,0,1,12.09,1.77,28.13,28.13,0,0,1,10.54,5.94Z" transform="translate(-153.06 -1151.46)" fill="#1d1c21"/><path d="M217.85,1183.17v13.33q12.73,0.13,22.14,9.76t9.53,22.73c0,0.14,0,.28,0,0.42h13.7A46.35,46.35,0,0,0,250,1197,43.27,43.27,0,0,0,217.85,1183.17Z" transform="translate(-153.06 -1151.46)" fill="#308bcb"/></svg>