<svg id="Layer_1" data-name="Layer 1" xmlns="http://www.w3.org/2000/svg" viewBox="0 0 198.77 43.89"><title>logo_bauren</title><rect x="136.94" y="13.34" width="25.51" height="6.12" fill="#00adbe"/><rect x="136.94" y="25.28" width="25.51" height="6.12" fill="#769dc2"/><rect x="136.94" y="37.22" width="25.51" height="6.12" fill="#a7a9ac"/><path d="M189.44,220.91c-0.19,2.91-2,4.77-5.21,4.77H173.94v-9.92h9.86a6.15,6.15,0,0,1,3.72.87,5,5,0,0,1,1.92,4.28m-1.8-17.36c-0.06,2.91-2,4.65-5.21,4.65h-8.49v-9.86h8.49c3.22,0,5.27,2,5.21,5.21m9.11-.31c0-8.12-5.7-12.83-13.64-12.83H164.7v43.34h20.15c8.68,0,13.76-5.21,13.76-12.83a9.9,9.9,0,0,0-6.2-9.67,9.47,9.47,0,0,0,4.34-8" transform="translate(-164.7 -190.41)" fill="#414042"/><path d="M221.36,223c-0.31,3.16-3.91,4.59-6.76,4.59-2,0-3.9-1.05-4.09-3.22-0.31-2.91,1.92-4.46,4.65-4.65a11.28,11.28,0,0,1,6.2,1.74V223Zm11.35,10.73-0.06-4.84c-2.85.19-2.79-1.3-2.79-3.84V214.28c0-8.62-6.57-11.16-14.26-11.16a27.06,27.06,0,0,0-11.22,2.23l1.12,6.2a17.24,17.24,0,0,1,8.62-1.8c3,0,7.44.62,7.44,4.28v2a15.21,15.21,0,0,0-7.94-1.92c-6.63,0-11.9,3.47-11.59,10.79,0.19,5.77,5.27,9.36,10.85,9.36,3.84,0,8.55-1.43,10.35-5.15,0,5.33,5,5.58,9.49,4.59" transform="translate(-164.7 -190.41)" fill="#414042"/><path d="M256.89,203.77V220.7c0,4-2.67,6.63-6.14,6.57-3,0-5.33-2.17-5.15-6.39V203.77h-8.74v17.11c0,7.44,2.48,13.21,11.1,13.21,3.72,0,7.87-1.3,9.55-4.77,0,5.77,6.69,5.33,10.91,4.34l-0.06-5.39c-2.67.19-2.79-.81-2.79-3.6V203.77h-8.68Z" transform="translate(-164.7 -190.41)" fill="#414042"/><path d="M282.8,208c-0.5-5.33-6.88-5.33-11.22-4.34V209c2.73-.43,3,1.18,3,3.66v21.08h8.49V217.56a6.68,6.68,0,0,1,7-7.07,9.39,9.39,0,0,1,5.58,1.61l1.92-7.25a10.38,10.38,0,0,0-6.39-1.92c-3.66,0-7.13,1.67-8.37,5.08" transform="translate(-164.7 -190.41)" fill="#414042"/><path d="M363.46,233.74v-17.3c0-7.44-3.35-13.27-11.78-13.27-3.47,0-7.87,1.18-9.55,4.65,0-5.39-6.94-4.71-10.91-4v5.39c2.85,0,2.85.93,2.85,3.91v20.65h8.68V216.63a6.22,6.22,0,0,1,6.32-6.57c3.1,0,5.83,2.29,5.64,6.39v17.3h8.74Z" transform="translate(-164.7 -190.41)" fill="#414042"/></svg>