<svg id="Layer_1" data-name="Layer 1" xmlns="http://www.w3.org/2000/svg" xmlns:xlink="http://www.w3.org/1999/xlink" viewBox="0 0 201.09 137.72"><defs><clipPath id="clip-path" transform="translate(-86.48 -342.97)"><rect x="122" y="342" width="125" height="88" fill="none"/></clipPath><clipPath id="clip-path-2" transform="translate(-86.48 -342.97)"><rect x="89" y="434" width="191" height="29" fill="none"/></clipPath></defs><title>logo_mm</title><g clip-path="url(#clip-path)"><path d="M235.52,350.66c-0.36.23-.78,4.77-1.81,6.22-2.87,4.07-7.42,6.74-10,14.43s-1.9,14.8,1,20.55,7.6,17.14-1.2,24.07c-7.6,6-9.16,1.57-16.17,3.52,8.39,10.19,23.57,2.07,25.32-5.82,0.57,2.5,2.31,5.27,4.56,5.47,1.85,0.16,4.68,2.29,5.09,3.44a12,12,0,0,0,1.94-6.36,10.92,10.92,0,0,0-2.52-6.37c-0.75-1,0-1.35.91-.87a7.12,7.12,0,0,0,3.44.6c0.59-.11.4-2.46-0.05-3.61-0.63-1.64.39-4.41-2.71-6.87s-8.65-4.33-12.09-7.15A19.74,19.74,0,0,1,224.45,380c-0.2-1.34.64-1.21,1,.32a22.23,22.23,0,0,0,4.08,8.38c1.14,1.29,3.21,2.14,3.32.39s1-2.52,1.11-3.31,0.11-.32.75,0.25a10.74,10.74,0,0,0,3.95,2c2.24,0.75,4.66,2,5.19,3.65s1.35,1.29,1.39-1c0.07-3.58-1.92-9.77-4.61-11.41-1.28-.78-0.6-1.39.32-1a6.72,6.72,0,0,0,3,.75c1,0,1.71-.84.47-1.73a4.8,4.8,0,0,1-1.7-4.49,8.86,8.86,0,0,0-3-7.31c-1.56-1.2-3.34-3.09-2.8-4.49,0.63-1.84.86-8.76-1.3-10.45m-5,59s0.42,6.09-6.34,10.43c-5.35,3.44-11.33,2.54-13.8.27,2.78,1,7.21,2.3,12.21-.22,6.45-3.27,7.94-10.48,7.94-10.48m-0.88-9.19a49.1,49.1,0,0,0,4.16,6.36,26.18,26.18,0,0,0,4.57,4.14c5.05,3.79,3.85,8.37,3.85,8.37a13.46,13.46,0,0,0-3.53-6.41c-2.44-2.21-4.77-3.5-6.43-6.26-3.18-5.29-2.62-6.2-2.62-6.2M245,407.86s-3.12-4.8-6-6.16c-9.64-4.52-11.05-9.52-11.05-9.52s5.78,5.64,10.47,7.95c5.77,2.85,6.62,7.73,6.62,7.73m-15.7-43.48c-0.7,8.86.75,13.39,7.36,16.5,4.17,2,5.16,4.45,6,7.75-2.5-5.25-5.91-5.13-10.86-9.08-5.25-4.17-3.31-13.62-3.31-13.62s0.66-1.43.77-1.56" transform="translate(-86.48 -342.97)"/><path d="M132.45,361.11c0.54,1.4-1.25,3.29-2.8,4.49a8.87,8.87,0,0,0-3,7.31,4.79,4.79,0,0,1-1.7,4.49c-1.24.89-.5,1.71,0.47,1.73a6.71,6.71,0,0,0,2.95-.75c0.93-.43,1.61.18,0.32,1-2.68,1.65-4.67,7.83-4.6,11.41,0,2.25.86,2.56,1.39,1s3-2.9,5.2-3.65a10.77,10.77,0,0,0,3.94-2c0.64-.58.61-1,0.75-0.25s1,1.57,1.11,3.31,2.18,0.89,3.32-.39a22.29,22.29,0,0,0,4.08-8.38c0.31-1.53,1.16-1.67,1-.32A19.76,19.76,0,0,1,138,391.91c-3.45,2.82-9,4.68-12.09,7.15s-2.08,5.24-2.71,6.88c-0.44,1.14-.64,3.49-0.06,3.61a7.13,7.13,0,0,0,3.45-.6c0.9-.48,1.66-0.09.91,0.87a10.88,10.88,0,0,0-2.52,6.37,11.93,11.93,0,0,0,1.94,6.36c0.41-1.16,3.24-3.28,5.08-3.44,2.25-.2,4-3,4.56-5.47,1.75,7.89,16.93,16,25.32,5.82-7-1.95-8.57,2.48-16.17-3.52-8.79-6.94-4.18-18.25-1.19-24.07s3.62-12.86,1-20.55-7.14-10.36-10-14.43c-1-1.45-1.45-6-1.8-6.22-2.16,1.69-1.93,8.61-1.3,10.45m14.24,59.05c5,2.52,9.42,1.24,12.2.22-2.47,2.27-8.45,3.17-13.81-.27-6.76-4.34-6.34-10.43-6.34-10.43s1.49,7.21,7.94,10.48M137,406.7c-1.66,2.76-4,4.05-6.42,6.26a13.42,13.42,0,0,0-3.53,6.41s-1.2-4.58,3.85-8.37a26.21,26.21,0,0,0,4.57-4.14,49.62,49.62,0,0,0,4.16-6.36s0.56,0.91-2.62,6.2m-6.13-6.57c4.68-2.31,10.47-7.95,10.47-7.95s-1.42,5-11.05,9.52c-2.91,1.36-6,6.16-6,6.16s0.84-4.89,6.62-7.73m9.85-34.19s1.95,9.45-3.3,13.62c-4.95,3.95-8.36,3.83-10.86,9.08,0.87-3.3,1.86-5.79,6-7.75,6.61-3.11,8.05-7.64,7.36-16.5,0.11,0.13.77,1.56,0.77,1.56" transform="translate(-86.48 -342.97)"/><path d="M146.47,344.47v57.63c0,15.35,38.16,25.46,38.16,25.46s38.16-10.12,38.16-25.46V344.47H146.47Z" transform="translate(-86.48 -342.97)"/><path d="M146.47,344.47v57.63c0,15.35,38.16,25.46,38.16,25.46s38.16-10.12,38.16-25.46V344.47H146.47Z" transform="translate(-86.48 -342.97)" fill="none" stroke="#d5b480" stroke-miterlimit="10" stroke-width="3"/><path d="M184.63,422.38c13.84-3.9,33.16-12.7,33.16-20.28V349.47H151.47v52.63C151.47,409.68,170.79,418.48,184.63,422.38Z" transform="translate(-86.48 -342.97)"/><path d="M184.63,422.38c13.84-3.9,33.16-12.7,33.16-20.28V349.47H151.47v52.63C151.47,409.68,170.79,418.48,184.63,422.38Z" transform="translate(-86.48 -342.97)" fill="none" stroke="#d5b480" stroke-miterlimit="10"/></g><polygon points="69.64 48.57 72.08 48.24 74.12 31.1 71.2 30.76 71.2 29.24 78.65 29.24 82.95 41.79 83.67 44.93 84.28 41.79 88.06 29.24 95.53 29.24 95.53 30.76 92.5 31.12 95.15 48.24 97.59 48.57 97.59 50.05 89.48 50.05 89.48 48.57 91.89 48.24 90.17 35.84 89.58 30.38 88.62 34.13 84.17 49.12 82.4 49.12 77.47 35.66 75.95 30.4 75.51 35.82 74.4 48.24 77.11 48.57 77.11 50.05 69.64 50.05 69.64 48.57" fill="#d5b480"/><polygon points="97.64 48.57 100.08 48.24 102.12 31.1 99.2 30.76 99.2 29.24 106.65 29.24 110.95 41.79 111.67 44.93 112.28 41.79 116.06 29.24 123.53 29.24 123.53 30.76 120.5 31.12 123.15 48.24 125.59 48.57 125.59 50.05 117.48 50.05 117.48 48.57 119.89 48.24 118.17 35.84 117.58 30.38 116.62 34.13 112.17 49.12 110.4 49.12 105.47 35.66 103.95 30.4 103.51 35.82 102.4 48.24 105.11 48.57 105.11 50.05 97.64 50.05 97.64 48.57" fill="#d5b480"/><polygon points="0 111.72 1.64 111.51 3.03 99.87 1.05 99.64 1.05 98.61 6.11 98.61 9.03 107.12 9.52 109.25 9.94 107.12 12.5 98.61 17.56 98.61 17.56 99.64 15.5 99.89 17.31 111.5 18.97 111.72 18.97 112.73 13.45 112.73 13.45 111.72 15.09 111.51 13.92 103.07 13.52 99.39 12.88 101.92 9.86 112.11 8.66 112.11 5.31 102.97 4.28 99.39 3.98 103.07 3.23 111.5 5.06 111.72 5.06 112.73 0 112.73 0 111.72"/><polygon points="20.03 111.72 21.72 111.5 21.72 99.89 20.03 99.64 20.03 98.61 25.61 98.61 25.61 99.64 23.91 99.87 23.91 111.5 25.64 111.75 25.64 112.73 20.03 112.73 20.03 111.72"/><path d="M113.76,448.64a8.06,8.06,0,0,1,.53-3,6.54,6.54,0,0,1,1.45-2.26,6.25,6.25,0,0,1,2.19-1.42,7.36,7.36,0,0,1,2.72-.5,10.32,10.32,0,0,1,1.25.08c0.42,0,.8.09,1.16,0.16s0.69,0.13,1,.2l0.7,0.14-0.17,3.47h-1.39l-0.52-2.37a1.5,1.5,0,0,0-.77-0.39,5.72,5.72,0,0,0-1.58-.17,3.49,3.49,0,0,0-1.62.39,3.6,3.6,0,0,0-1.28,1.13,5.83,5.83,0,0,0-.84,1.83,9.61,9.61,0,0,0-.3,2.52,11.17,11.17,0,0,0,.25,2.39,6.94,6.94,0,0,0,.77,2,4.35,4.35,0,0,0,1.31,1.44,3.47,3.47,0,0,0,2,.53,4.61,4.61,0,0,0,.83-0.06,3.23,3.23,0,0,0,.61-0.16,2.88,2.88,0,0,0,.42-0.22,1.63,1.63,0,0,0,.28-0.25l0.81-2,1.31,0.17-0.41,2.84a3.55,3.55,0,0,0-.72.14l-0.75.25c-0.27.09-.59,0.16-0.94,0.24a6.9,6.9,0,0,1-1.31.11,8.22,8.22,0,0,1-3-.5,5.88,5.88,0,0,1-2.17-1.44,6,6,0,0,1-1.34-2.28A9.56,9.56,0,0,1,113.76,448.64Z" transform="translate(-86.48 -342.97)"/><polygon points="39.98 111.72 41.51 111.5 41.51 99.89 40.04 99.64 40.04 98.61 45.29 98.61 45.29 99.64 43.7 99.87 43.7 104.89 50.2 104.89 50.2 99.87 48.67 99.64 48.67 98.61 53.86 98.61 53.86 99.64 52.37 99.87 52.37 111.51 53.86 111.72 53.86 112.73 48.68 112.73 48.68 111.72 50.2 111.51 50.2 106.11 43.7 106.11 43.7 111.5 45.29 111.72 45.29 112.73 39.98 112.73 39.98 111.72"/><polygon points="55.72 111.72 57.29 111.5 57.29 99.87 55.75 99.64 55.75 98.61 65.41 98.61 65.68 101.56 64.49 101.56 63.91 99.79 59.46 99.67 59.46 104.9 62.47 104.86 62.75 103.31 63.96 103.31 63.96 107.72 62.75 107.72 62.49 106.07 59.46 106.03 59.46 111.57 64.57 111.37 65.61 109.04 66.8 109.4 66.25 112.73 55.72 112.73 55.72 111.72"/><polygon points="68.17 111.72 69.73 111.5 69.73 99.87 68.2 99.64 68.2 98.61 73.72 98.61 73.72 99.64 71.93 99.89 71.93 111.51 76.62 111.32 77.75 108.22 79 108.43 78.36 112.73 68.17 112.73 68.17 111.72"/><polygon points="80.22 111.72 81.78 111.5 81.78 99.87 80.25 99.64 80.25 98.61 89.9 98.61 90.17 101.56 88.98 101.56 88.4 99.79 83.95 99.67 83.95 104.9 86.97 104.86 87.25 103.31 88.45 103.31 88.45 107.72 87.25 107.72 86.98 106.07 83.95 106.03 83.95 111.57 89.06 111.37 90.11 109.04 91.29 109.4 90.75 112.73 80.22 112.73 80.22 111.72"/><path d="M188.58,454.56a5.24,5.24,0,0,0,1,.17c0.35,0,.73,0,1.14,0a4.48,4.48,0,0,0,1.86-.41,3.92,3.92,0,0,0,1.47-1.16,5.52,5.52,0,0,0,1-1.91,9.38,9.38,0,0,0,.34-2.67,7,7,0,0,0-1.28-4.52,4.7,4.7,0,0,0-3.86-1.55,7.62,7.62,0,0,0-1,.06l-0.66.06v11.91Zm-3.75.13,1.58-.22V442.86l-1.47-.25v-1h3.31l0.83,0,0.81,0c0.28,0,.57,0,0.86,0a9.29,9.29,0,0,1,3.16.48,5.58,5.58,0,0,1,2.19,1.36,5.42,5.42,0,0,1,1.26,2.13,9.71,9.71,0,0,1-.12,6,7,7,0,0,1-1.47,2.44,6.56,6.56,0,0,1-2.28,1.55,7.33,7.33,0,0,1-2.94.52l-0.73,0-0.78,0-0.78,0-0.75,0h-2.67v-1Z" transform="translate(-86.48 -342.97)"/><polygon points="112.83 111.72 114.39 111.5 114.39 99.87 112.86 99.64 112.86 98.61 122.52 98.61 122.79 101.56 121.6 101.56 121.02 99.79 116.57 99.67 116.57 104.9 119.58 104.86 119.86 103.31 121.07 103.31 121.07 107.72 119.86 107.72 119.6 106.07 116.57 106.03 116.57 111.57 121.68 111.37 122.72 109.04 123.91 109.4 123.36 112.73 112.83 112.73 112.83 111.72"/><polygon points="130.11 111.72 131.75 111.51 133.14 99.87 131.15 99.64 131.15 98.61 136.22 98.61 139.14 107.12 139.62 109.25 140.04 107.12 142.61 98.61 147.67 98.61 147.67 99.64 145.61 99.89 147.42 111.5 149.07 111.72 149.07 112.73 143.56 112.73 143.56 111.72 145.2 111.51 144.03 103.07 143.62 99.39 142.98 101.92 139.97 112.11 138.76 112.11 135.42 102.97 134.39 99.39 134.09 103.07 133.34 111.5 135.17 111.72 135.17 112.73 130.11 112.73 130.11 111.72"/><path d="M244.17,450.57l-2-6.09-0.41-1.56-0.41,1.58-1.91,6.08h4.7Zm-8.91,4.11,1.17-.22,4.58-13h2.2l4.61,13,1.19,0.22v1h-5.09v-1l1.52-.22-0.89-2.7h-5.45l-0.84,2.7,1.59,0.22v1h-4.58v-1Z" transform="translate(-86.48 -342.97)"/><path d="M253.34,448.4l0.44,0H255l0.45,0a2.81,2.81,0,0,0,1-.19,2.06,2.06,0,0,0,.8-0.56,2.67,2.67,0,0,0,.5-1,4.86,4.86,0,0,0,.17-1.37,4.21,4.21,0,0,0-.14-1.12,1.86,1.86,0,0,0-.48-0.87,2.24,2.24,0,0,0-.94-0.58,4.2,4.2,0,0,0-1.45-.22l-0.59,0-0.44,0-0.33,0-0.23,0v5.77Zm-3.73,6.28,1.56-.2V442.82l-1.47-.23v-1H253l0.7,0,0.72,0c0.25,0,.5,0,0.77,0a10.59,10.59,0,0,1,2.41.23,4.17,4.17,0,0,1,1.59.7,2.56,2.56,0,0,1,.88,1.16,4.67,4.67,0,0,1,.09,2.91,3.94,3.94,0,0,1-.53,1.16,4.19,4.19,0,0,1-.87.94,3.51,3.51,0,0,1-1.19.61,2.86,2.86,0,0,1,.78.7,9.59,9.59,0,0,1,.72,1q0.34,0.56.66,1.17l0.61,1.13a8.19,8.19,0,0,0,.56.88,1,1,0,0,0,.5.42l0.73,0.22v1h-2.75a0.55,0.55,0,0,1-.39-0.23,4.88,4.88,0,0,1-.41-0.61c-0.15-.26-0.3-0.55-0.45-0.89l-0.48-1c-0.16-.36-0.32-0.72-0.48-1.08s-0.34-.7-0.52-1a6.18,6.18,0,0,0-.52-0.81,2.06,2.06,0,0,0-.53-0.5h-1.28l-0.59,0-0.36,0v5l1.83,0.2v1H249.6v-1Z" transform="translate(-86.48 -342.97)"/><path d="M262.68,448.64a8,8,0,0,1,.53-3,6.54,6.54,0,0,1,1.45-2.26,6.25,6.25,0,0,1,2.19-1.42,7.36,7.36,0,0,1,2.72-.5,10.33,10.33,0,0,1,1.25.08c0.41,0,.8.09,1.16,0.16s0.69,0.13,1,.2l0.7,0.14-0.17,3.47H272.1l-0.52-2.37a1.5,1.5,0,0,0-.77-0.39,5.72,5.72,0,0,0-1.58-.17,3.49,3.49,0,0,0-1.62.39,3.6,3.6,0,0,0-1.28,1.13,5.81,5.81,0,0,0-.84,1.83,9.61,9.61,0,0,0-.3,2.52,11.17,11.17,0,0,0,.25,2.39,6.91,6.91,0,0,0,.77,2,4.36,4.36,0,0,0,1.31,1.44,3.48,3.48,0,0,0,2,.53,4.61,4.61,0,0,0,.83-0.06,3.23,3.23,0,0,0,.61-0.16,2.88,2.88,0,0,0,.42-0.22,1.63,1.63,0,0,0,.28-0.25l0.81-2,1.31,0.17-0.41,2.84a3.55,3.55,0,0,0-.72.14l-0.75.25c-0.27.09-.59,0.16-0.94,0.24a6.9,6.9,0,0,1-1.31.11,8.23,8.23,0,0,1-3-.5,5.88,5.88,0,0,1-2.17-1.44,6,6,0,0,1-1.34-2.28A9.56,9.56,0,0,1,262.68,448.64Z" transform="translate(-86.48 -342.97)"/><path d="M281.32,454.82a3.18,3.18,0,0,0,1.58-.39,3.49,3.49,0,0,0,1.22-1.19,6.18,6.18,0,0,0,.77-2,12.18,12.18,0,0,0,.28-2.78,11.61,11.61,0,0,0-.25-2.5,5.78,5.78,0,0,0-.75-1.87,3.43,3.43,0,0,0-1.2-1.19,3.16,3.16,0,0,0-1.62-.42,3.38,3.38,0,0,0-1.59.38,3.3,3.3,0,0,0-1.2,1.14,6.12,6.12,0,0,0-.78,2,12.38,12.38,0,0,0-.27,2.75,11.53,11.53,0,0,0,.25,2.51,6.22,6.22,0,0,0,.73,1.92,3.7,3.7,0,0,0,1.22,1.23A3.14,3.14,0,0,0,281.32,454.82Zm-0.11,1.09a6.56,6.56,0,0,1-2.67-.48,5.21,5.21,0,0,1-1.92-1.47,6.44,6.44,0,0,1-1.16-2.28,10.43,10.43,0,0,1-.39-2.94,8.86,8.86,0,0,1,.48-3,7,7,0,0,1,1.36-2.31,5.92,5.92,0,0,1,2-1.47,6.24,6.24,0,0,1,2.55-.52,6.4,6.4,0,0,1,2.66.52,5,5,0,0,1,1.89,1.42,6.1,6.1,0,0,1,1.14,2.23,10.29,10.29,0,0,1,.39,2.91,9,9,0,0,1-.48,3,7.18,7.18,0,0,1-1.33,2.33,5.79,5.79,0,0,1-2,1.5A6.45,6.45,0,0,1,281.21,455.92Z" transform="translate(-86.48 -342.97)"/><g clip-path="url(#clip-path-2)"><path d="M89.29,435.1l8.19-.19c5.21-.08,12.66-0.28,21.6-0.37s19.37-.27,30.54-0.3l35-.13,35,0.13c11.17,0,21.6.22,30.54,0.3s16.39,0.29,21.6.37l8.2,0.2-8.2.2c-5.21.08-12.66,0.28-21.6,0.37s-19.36.27-30.54,0.3l-35,.13-35-.13c-11.17,0-21.6-.22-30.54-0.3s-16.38-.29-21.6-0.37l-8.19-.2" transform="translate(-86.48 -342.97)" fill="#d5b480"/><path d="M89.29,461.69l8.19-.2c5.21-.08,12.66-0.28,21.6-0.37s19.37-.27,30.54-0.3l35-.13,35,0.13c11.17,0,21.6.22,30.54,0.3s16.39,0.29,21.6.37l8.2,0.2-8.2.19c-5.21.08-12.66,0.28-21.6,0.37s-19.36.27-30.54,0.31l-35,.13-35-.13c-11.17,0-21.6-.22-30.54-0.3s-16.38-.29-21.6-0.37l-8.19-.19" transform="translate(-86.48 -342.97)" fill="#d5b480"/></g><polygon points="45.6 137.72 44.46 137.72 44.46 133.96 40.3 133.96 40.3 137.72 39.16 137.72 39.16 129.19 40.3 129.19 40.3 133.05 44.46 133.05 44.46 129.19 45.6 129.19 45.6 137.72"/><path d="M135.72,477.52h2.86l-1.41-3.87h0Zm3.2,1h-3.56l-0.81,2.2h-1.17l3.3-8.53h1l3.25,8.53h-1.19Z" transform="translate(-86.48 -342.97)"/><polygon points="62.05 137.72 60.91 137.72 56.8 131.13 56.75 131.13 56.75 137.72 55.61 137.72 55.61 129.19 56.75 129.19 60.86 135.77 60.91 135.77 60.91 129.19 62.05 129.19 62.05 137.72"/><path d="M151.79,473.07v6.72h1.47a2.32,2.32,0,0,0,1.86-.78,2.92,2.92,0,0,0,.69-2v-1.17a2.9,2.9,0,0,0-.69-2,2.33,2.33,0,0,0-1.86-.78h-1.47Zm-1.14,7.63v-8.53h2.61a3.51,3.51,0,0,1,3.7,3.69V477a3.49,3.49,0,0,1-3.7,3.69h-2.61Z" transform="translate(-86.48 -342.97)"/><polygon points="73.54 129.19 76.25 136.13 76.29 136.13 79 129.19 80.49 129.19 80.49 137.72 79.33 137.72 79.33 134.35 79.44 130.88 79.43 130.88 76.66 137.72 75.88 137.72 73.13 130.9 73.1 130.9 73.21 134.35 73.21 137.72 72.07 137.72 72.07 129.19 73.54 129.19"/><path d="M170.62,477.52h2.86l-1.41-3.87h0Zm3.2,1h-3.56l-0.81,2.2h-1.17l3.3-8.53h1l3.25,8.53h-1.19Z" transform="translate(-86.48 -342.97)"/><path d="M178.14,473.07v6.72h1.47a2.32,2.32,0,0,0,1.86-.78,2.92,2.92,0,0,0,.69-2v-1.17a2.9,2.9,0,0,0-.69-2,2.33,2.33,0,0,0-1.86-.78h-1.47ZM177,480.69v-8.53h2.61a3.51,3.51,0,0,1,3.7,3.69V477a3.49,3.49,0,0,1-3.7,3.69H177Z" transform="translate(-86.48 -342.97)"/><polygon points="103.47 133.77 99.55 133.77 99.55 136.82 104.07 136.82 104.07 137.72 98.41 137.72 98.41 129.19 104 129.19 104 130.1 99.55 130.1 99.55 132.86 103.47 132.86 103.47 133.77"/><polygon points="113.46 133.77 109.54 133.77 109.54 136.82 114.05 136.82 114.05 137.72 108.39 137.72 108.39 129.19 113.99 129.19 113.99 130.1 109.54 130.1 109.54 132.86 113.46 132.86 113.46 133.77"/><polygon points="118 133.52 120.23 129.19 121.54 129.19 118.56 134.72 118.56 137.72 117.4 137.72 117.4 134.65 114.47 129.19 115.78 129.19 118 133.52"/><polygon points="127.8 133.77 123.88 133.77 123.88 136.82 128.4 136.82 128.4 137.72 122.74 137.72 122.74 129.19 128.33 129.19 128.33 130.1 123.88 130.1 123.88 132.86 127.8 132.86 127.8 133.77"/><polygon points="131.45 134.77 131.61 135.83 131.64 135.85 131.87 134.77 133.43 129.19 134.45 129.19 136.03 134.77 136.26 135.86 136.31 135.86 136.47 134.77 137.75 129.19 138.9 129.19 136.84 137.72 135.81 137.72 134.12 131.8 133.98 131.03 133.93 131.03 133.79 131.8 132.09 137.72 131.06 137.72 129 129.19 130.15 129.19 131.45 134.77"/><polygon points="145.4 133.77 141.48 133.77 141.48 136.82 146 136.82 146 137.72 140.34 137.72 140.34 129.19 145.93 129.19 145.93 130.1 141.48 130.1 141.48 132.86 145.4 132.86 145.4 133.77"/><path d="M235.24,477.52h2.86l-1.41-3.87h0Zm3.2,1h-3.56l-0.81,2.2H232.9l3.3-8.53h1l3.25,8.53h-1.19Z" transform="translate(-86.48 -342.97)"/><path d="M242.75,476.08h1.83a2.13,2.13,0,0,0,1.39-.36,1.69,1.69,0,0,0,0-2.25,1.78,1.78,0,0,0-1.3-.41h-1.94v3Zm0,0.91v3.7h-1.14v-8.53h3.08a3.24,3.24,0,0,1,2.14.63,2.26,2.26,0,0,1,.73,1.81,1.94,1.94,0,0,1-.34,1.14,2.3,2.3,0,0,1-1,.77,1.8,1.8,0,0,1,1,.75,2.38,2.38,0,0,1,.31,1.27v0.8a2.81,2.81,0,0,0,.08.72,1.08,1.08,0,0,0,.31.52v0.14h-1.19a0.92,0.92,0,0,1-.3-0.58,5,5,0,0,1-.06-0.81v-0.77a1.56,1.56,0,0,0-.41-1.12,1.44,1.44,0,0,0-1.08-.42h-2.16Z" transform="translate(-86.48 -342.97)"/></svg>