<svg id="Слой_1" data-name="Слой 1" xmlns="http://www.w3.org/2000/svg" viewBox="0 0 282.96 69.59"><title>logo_1travel</title><path d="M94.5,96.87H34.81a5,5,0,0,1-5-5V32.28a5,5,0,0,1,5-5H94.5a5,5,0,0,1,5,5v59.6a5,5,0,0,1-5,5h0Zm-19.87-56a1.29,1.29,0,0,0-.95-0.35H67a16.66,16.66,0,0,0-1.9.09,4.11,4.11,0,0,0-1.6.59l-4.33,2A2.57,2.57,0,0,0,57.58,45l-1,6.34a1.42,1.42,0,0,0,.16,1,0.86,0.86,0,0,0,.81.41,0.22,0.22,0,0,1,.22-0.1,0.66,0.66,0,0,0,.3,0l4.36-2L57.29,83.09a1.28,1.28,0,0,0,.15.84,1,1,0,0,0,1,.4h8.39A1.42,1.42,0,0,0,68.37,83l6.52-41.19a1,1,0,0,0-.26-0.94h0Z" transform="translate(-29.8 -27.28)" fill="#ffa100" fill-rule="evenodd"/><path d="M142.46,58.49a0.86,0.86,0,0,1-.73.34h-7.1V81.32a1,1,0,0,1-.27.67,0.89,0.89,0,0,1-.7.3h-6A1,1,0,0,1,127,82a0.89,0.89,0,0,1-.31-0.69V58.83H119.6a1,1,0,0,1-.69-0.27,1,1,0,0,1-.28-0.78v-5.1a0.83,0.83,0,0,1,.28-0.66,1,1,0,0,1,.69-0.25h22.13a1,1,0,0,1,.66.23,0.92,0.92,0,0,1,.33.68v5.1a1.15,1.15,0,0,1-.26.71h0ZM178,82.11a0.9,0.9,0,0,1-.59.17H170.4a1,1,0,0,1-.63-0.21,0.94,0.94,0,0,1-.36-0.55l-5-9.39h-3.33V81.4a0.81,0.81,0,0,1-.95.88H154a1,1,0,0,1-.66-0.22,0.84,0.84,0,0,1-.25-0.67V52.73a1,1,0,0,1,.23-0.69,0.86,0.86,0,0,1,.68-0.26h13.29a10,10,0,0,1,4,.79,10.38,10.38,0,0,1,3.23,2.15,10.06,10.06,0,0,1,2.17,3.17,9.6,9.6,0,0,1,.79,3.87,9.16,9.16,0,0,1-.38,2.66A9.88,9.88,0,0,1,176,66.79a10,10,0,0,1-1.62,2,10.52,10.52,0,0,1-2,1.53l5.29,9.94c0.1,0.19.22,0.42,0.37,0.68a1.39,1.39,0,0,1,.23.68,0.61,0.61,0,0,1-.21.5h0Zm-9-21.49a4,4,0,0,0-.64-1.13,3.74,3.74,0,0,0-1-.86,3.39,3.39,0,0,0-1.27-.45L165,58.1c-0.34,0-.7,0-1.1,0h-2.84v7.54h3.78l0.66,0,0.64-.06a3.25,3.25,0,0,0,1.3-.42,3.38,3.38,0,0,0,1-.84,3.71,3.71,0,0,0,.6-1.13,4.1,4.1,0,0,0,.21-1.28,3.54,3.54,0,0,0-.23-1.23h0ZM215.46,82a1,1,0,0,1-.78.26h-5.9a1.29,1.29,0,0,1-.73-0.17,1.12,1.12,0,0,1-.4-0.58q-0.41-1-.8-2.08l-0.78-2.08H195.14q-0.39,1-.79,2.08t-0.79,2.08a1,1,0,0,1-1,.76h-6.07a1,1,0,0,1-.65-0.21,0.49,0.49,0,0,1-.09-0.62l11.17-28.88a0.62,0.62,0,0,1,.13-0.27,1.49,1.49,0,0,1,.28-0.27,1.47,1.47,0,0,1,.35-0.19,1,1,0,0,1,.35-0.07h5.27a0.88,0.88,0,0,1,.6.22,2.59,2.59,0,0,1,.37.38l0.51,1.17,10.8,27.81a0.6,0.6,0,0,1-.06.67h0ZM200.61,61.38q-0.39,1-.79,2.26c-0.27.81-.53,1.62-0.79,2.44s-0.53,1.63-.79,2.43-0.53,1.55-.79,2.25h6.31l-3.15-9.39h0Zm47.83-8.73v0.06L237.82,80.29q-0.1.29-.25,0.64a4.6,4.6,0,0,1-.33.65,2.07,2.07,0,0,1-.43.5,0.85,0.85,0,0,1-.55.21h-5.08a0.84,0.84,0,0,1-.84-0.43,6.5,6.5,0,0,1-.4-0.76c-0.12-.26-0.23-0.53-0.34-0.8L219,52.71a0.55,0.55,0,0,0,0-.18,0.44,0.44,0,0,1,0-.16c0-.38.25-0.58,0.76-0.58h6.62a1.06,1.06,0,0,1,1.07.78l6.28,18.69q0.84-2.34,1.61-4.67t1.52-4.67q0.75-2.34,1.52-4.67T240,52.56a1.1,1.1,0,0,1,1.13-.78h6.48a1,1,0,0,1,.67.18,0.59,0.59,0,0,1,.2.46,0.83,0.83,0,0,1,0,.23h0Zm32.85,29.07a0.71,0.71,0,0,1-.84.57h-20.8a1,1,0,0,1-.66-0.22,0.84,0.84,0,0,1-.25-0.67V52.73A1,1,0,0,1,259,52a0.86,0.86,0,0,1,.67-0.26h20.41a0.91,0.91,0,0,1,.7.27,1,1,0,0,1,.25.72v5.08a1.07,1.07,0,0,1-.25.67,0.86,0.86,0,0,1-.72.32H266.7v5.09H277a1.08,1.08,0,0,1,.65.18,0.71,0.71,0,0,1,.26.62v4.44a0.85,0.85,0,0,1-.23.55A0.81,0.81,0,0,1,277,70H266.7v5.26h13.82a0.83,0.83,0,0,1,.93.94v5.16a0.51,0.51,0,0,1-.16.37h0Zm31,0.26a0.87,0.87,0,0,1-.67.31H293.28a0.8,0.8,0,0,1-.91-0.9V52.67a0.9,0.9,0,0,1,.25-0.64,0.88,0.88,0,0,1,.68-0.27h6.09A1,1,0,0,1,300,52a0.89,0.89,0,0,1,.31.66V75h11.31a0.9,0.9,0,0,1,.64.25,0.88,0.88,0,0,1,.27.68v5.4a1,1,0,0,1-.24.64h0Zm-183.11,8.3v6.39h-0.57V90.28h-2.37V89.79h5.3v0.48h-2.37Zm8.44,5.89a2.64,2.64,0,0,1-1.79.59,2.57,2.57,0,0,1-1.77-.6,2.17,2.17,0,0,1-.68-1.72V89.79H134v4.66a1.75,1.75,0,0,0,.52,1.36,1.92,1.92,0,0,0,1.36.48,2,2,0,0,0,1.38-.48,1.72,1.72,0,0,0,.53-1.36V89.79h0.56v4.66a2.15,2.15,0,0,1-.69,1.72h0Zm-3.33-7.93h3.17V88.7h-3.17V88.24h0Zm10.87,8.43a1,1,0,0,1-.25-0.48,2.85,2.85,0,0,1-.07-0.64V94.93a1.27,1.27,0,0,0-.41-1,1.65,1.65,0,0,0-1.14-.37H141.4v3.11h-0.56V89.8h2.33a2.61,2.61,0,0,1,1.7.48,1.72,1.72,0,0,1,.59,1.41,1.61,1.61,0,0,1-.32,1,1.79,1.79,0,0,1-.89.63,1.5,1.5,0,0,1,.92.57,1.8,1.8,0,0,1,.28,1v0.65a2,2,0,0,0,.08.58,0.9,0.9,0,0,0,.25.42v0.11H145.2Zm-0.74-4a1.28,1.28,0,0,0,.43-1,1.3,1.3,0,0,0-.43-1,2,2,0,0,0-1.29-.37H141.4v2.8h1.7a2,2,0,0,0,1.36-.37h0Zm3.72,4V89.79h0.57v6.87h-0.57Zm7.22-4.91a1.46,1.46,0,0,0-.49-1.13,1.9,1.9,0,0,0-1.33-.44,2,2,0,0,0-1.29.37,1.12,1.12,0,0,0-.47.92,1.07,1.07,0,0,0,.43.87,4,4,0,0,0,1.48.61,4.29,4.29,0,0,1,1.69.76A1.57,1.57,0,0,1,156,95a1.53,1.53,0,0,1-.67,1.31,2.87,2.87,0,0,1-1.72.49,3.14,3.14,0,0,1-1.8-.52,1.65,1.65,0,0,1-.74-1.51v0h0.52a1.31,1.31,0,0,0,.6,1.19,2.56,2.56,0,0,0,1.41.39,2.23,2.23,0,0,0,1.32-.36,1.11,1.11,0,0,0,.5-0.95,1.15,1.15,0,0,0-.42-0.92,3.88,3.88,0,0,0-1.47-.63,4.62,4.62,0,0,1-1.71-.74,1.47,1.47,0,0,1-.58-1.22,1.54,1.54,0,0,1,.65-1.28,2.68,2.68,0,0,1,1.67-.5,2.46,2.46,0,0,1,1.72.59,1.81,1.81,0,0,1,.63,1.44v0h-0.52Zm8.78,4.91v-3l0-3h0l-2.56,6.05h-0.39l-2.55-6h0l0.05,3v3h-0.56V89.79h0.74l2.53,6.05h0L164,89.79h0.75v6.87h-0.56Zm7.69,0-0.71-1.92H168l-0.71,1.92h-0.59l2.61-6.87h0.53l2.6,6.87h-0.59Zm-2.26-6.14h0l-1.38,3.72H171l-1.37-3.72h0Zm12,5.64a2.64,2.64,0,0,1-1.79.59,2.57,2.57,0,0,1-1.77-.6,2.17,2.17,0,0,1-.68-1.72V89.79H178v4.66a1.75,1.75,0,0,0,.52,1.36,1.92,1.92,0,0,0,1.36.48,2,2,0,0,0,1.38-.48,1.72,1.72,0,0,0,.54-1.36V89.79h0.56v4.66a2.15,2.15,0,0,1-.69,1.72h0Zm7.71,0.5-3.91-5.91h0v5.9h-0.57V89.79h0.57l3.91,5.9h0V89.79h0.56v6.87h-0.56Zm6.51,0V89.79h0.57v6.87h-0.57Zm7.83,0-3.91-5.91h0v5.9H199.2V89.79h0.57l3.91,5.9h0V89.79h0.56v6.87h-0.56Zm3.76-6.39V93h3.35v0.48h-3.35v3.22h-0.56V89.79h4.39v0.48h-3.83Zm10.15,5.67a2.49,2.49,0,0,1-2,.82,2.44,2.44,0,0,1-1.93-.82,3.14,3.14,0,0,1-.72-2.15V92.67a3.16,3.16,0,0,1,.72-2.15,2.43,2.43,0,0,1,1.93-.83,2.49,2.49,0,0,1,2,.83,3.12,3.12,0,0,1,.73,2.15v1.12a3.12,3.12,0,0,1-.73,2.15h0Zm0.17-3.28a2.72,2.72,0,0,0-.56-1.8,1.92,1.92,0,0,0-1.57-.68,1.85,1.85,0,0,0-1.53.68,2.78,2.78,0,0,0-.55,1.8V93.8a2.78,2.78,0,0,0,.55,1.81,1.86,1.86,0,0,0,1.54.68,1.92,1.92,0,0,0,1.57-.68,2.75,2.75,0,0,0,.56-1.81V92.67h0Zm7.23,4a0.94,0.94,0,0,1-.25-0.48,2.85,2.85,0,0,1-.07-0.64V94.93a1.28,1.28,0,0,0-.41-1,1.66,1.66,0,0,0-1.14-.37h-1.93v3.11h-0.56V89.8H223a2.61,2.61,0,0,1,1.7.48,1.72,1.72,0,0,1,.59,1.41,1.61,1.61,0,0,1-.32,1,1.8,1.8,0,0,1-.89.63,1.5,1.5,0,0,1,.92.57,1.8,1.8,0,0,1,.28,1v0.65a2,2,0,0,0,.08.58,0.9,0.9,0,0,0,.25.42v0.11H225Zm-0.74-4a1.28,1.28,0,0,0,.43-1,1.3,1.3,0,0,0-.43-1,2,2,0,0,0-1.29-.37h-1.77v2.8h1.7a2,2,0,0,0,1.36-.37h0Zm9.62,4v-3l0-3h0l-2.56,6.05H231l-2.55-6h0l0.05,3v3h-0.56V89.79h0.74l2.53,6.05h0l2.54-6.05h0.75v6.87h-0.56Zm3.9-8.43H241V88.7h-3.17V88.24h0Zm1.78,1.56,2.59,6.87h-0.59l-0.71-1.92h-3.15L237,96.67h-0.59L239,89.79h0.54Zm1.12,4.45-1.37-3.72h0l-1.38,3.72h2.78Zm7.53-2.31a2.13,2.13,0,0,0-.59-1.31,1.87,1.87,0,0,0-1.35-.45,1.75,1.75,0,0,0-1.45.7,2.82,2.82,0,0,0-.54,1.79v1.13a2.83,2.83,0,0,0,.54,1.8,1.75,1.75,0,0,0,1.45.7,1.91,1.91,0,0,0,1.35-.44,2.08,2.08,0,0,0,.59-1.32h0.53v0a2.4,2.4,0,0,1-.74,1.63,2.47,2.47,0,0,1-1.73.59,2.31,2.31,0,0,1-1.85-.83,3.19,3.19,0,0,1-.7-2.14V92.67a3.2,3.2,0,0,1,.7-2.15,2.3,2.3,0,0,1,1.85-.83,2.5,2.5,0,0,1,1.74.58,2.38,2.38,0,0,1,.73,1.63v0h-0.53Zm2.95,4.73V89.79h0.57v6.87h-0.57Zm6.33-.46a2,2,0,0,1-1.45.55,2.23,2.23,0,0,1-1.53-.5A1.79,1.79,0,0,1,254,94.8v0h0.53a1.49,1.49,0,0,0,.4,1.13,1.57,1.57,0,0,0,1.13.38,1.36,1.36,0,0,0,1-.43,1.59,1.59,0,0,0,.41-1.14V89.79h0.57v4.92a2,2,0,0,1-.56,1.49h0ZM265,96.67l-0.71-1.92h-3.15l-0.71,1.92H259.8l2.61-6.87h0.54l2.59,6.87H265Zm-2.26-6.14h0l-1.38,3.72h2.78l-1.37-3.72h0Zm8.63,1.23a1.46,1.46,0,0,0-.49-1.13,1.9,1.9,0,0,0-1.33-.44,2,2,0,0,0-1.29.37,1.12,1.12,0,0,0-.46.92,1.07,1.07,0,0,0,.43.87,4,4,0,0,0,1.48.61,4.3,4.3,0,0,1,1.69.76,1.57,1.57,0,0,1,.58,1.27,1.53,1.53,0,0,1-.67,1.31,2.87,2.87,0,0,1-1.72.49,3.14,3.14,0,0,1-1.8-.52,1.65,1.65,0,0,1-.74-1.51v0h0.52a1.31,1.31,0,0,0,.6,1.19,2.56,2.56,0,0,0,1.41.39,2.23,2.23,0,0,0,1.32-.36,1.11,1.11,0,0,0,.5-0.95,1.15,1.15,0,0,0-.42-0.92,3.89,3.89,0,0,0-1.47-.63,4.64,4.64,0,0,1-1.71-.74,1.47,1.47,0,0,1-.58-1.22,1.55,1.55,0,0,1,.65-1.28,2.68,2.68,0,0,1,1.67-.5,2.45,2.45,0,0,1,1.71.59,1.81,1.81,0,0,1,.63,1.44l0,0h-0.52Zm9.11,1.31a1.7,1.7,0,0,1,1.41,1.69,1.73,1.73,0,0,1-.6,1.41,2.42,2.42,0,0,1-1.6.5h-2.38V89.79h2a2.72,2.72,0,0,1,1.67.45,1.59,1.59,0,0,1,.6,1.36,1.46,1.46,0,0,1-.3.92,1.53,1.53,0,0,1-.81.54h0Zm-2.6,3.12h1.81a1.77,1.77,0,0,0,1.2-.37,1.3,1.3,0,0,0,.44-1,1.37,1.37,0,0,0-.39-1,1.55,1.55,0,0,0-1.15-.39h-1.9v2.83h0Zm2.71-5.58a2.08,2.08,0,0,0-1.27-.33h-1.45v2.6h1.58a1.8,1.8,0,0,0,1.16-.33,1.33,1.33,0,0,0,0-1.94h0Zm3.68,6.06V89.79h0.57v6.87h-0.57Zm7.67,0a0.94,0.94,0,0,1-.25-0.48,2.85,2.85,0,0,1-.07-0.64V94.93a1.27,1.27,0,0,0-.41-1,1.65,1.65,0,0,0-1.14-.37H288.1v3.11h-0.56V89.8h2.33a2.62,2.62,0,0,1,1.7.48,1.72,1.72,0,0,1,.59,1.41,1.61,1.61,0,0,1-.32,1,1.8,1.8,0,0,1-.89.63,1.5,1.5,0,0,1,.92.57,1.8,1.8,0,0,1,.28,1v0.65a2,2,0,0,0,.08.58,0.92,0.92,0,0,0,.25.42v0.11h-0.58Zm-0.74-4a1.28,1.28,0,0,0,.43-1,1.3,1.3,0,0,0-.43-1,2,2,0,0,0-1.29-.37H288.1v2.8h1.7a2,2,0,0,0,1.36-.37h0ZM299,95.94a2.49,2.49,0,0,1-2,.82,2.44,2.44,0,0,1-1.93-.82,3.14,3.14,0,0,1-.72-2.15V92.67a3.17,3.17,0,0,1,.72-2.15,2.43,2.43,0,0,1,1.93-.83,2.5,2.5,0,0,1,2,.83,3.13,3.13,0,0,1,.73,2.15v1.12a3.12,3.12,0,0,1-.73,2.15h0Zm0.17-3.28a2.73,2.73,0,0,0-.56-1.8,1.93,1.93,0,0,0-1.57-.68,1.86,1.86,0,0,0-1.53.68,2.78,2.78,0,0,0-.55,1.8V93.8a2.78,2.78,0,0,0,.55,1.81,1.86,1.86,0,0,0,1.53.68,1.92,1.92,0,0,0,1.57-.68,2.75,2.75,0,0,0,.56-1.81V92.67h0Zm5.89,3.54a2,2,0,0,1-1.45.55,2.22,2.22,0,0,1-1.53-.5,1.78,1.78,0,0,1-.54-1.46v0h0.53a1.49,1.49,0,0,0,.4,1.13,1.56,1.56,0,0,0,1.13.38,1.37,1.37,0,0,0,1-.43,1.59,1.59,0,0,0,.41-1.14V89.79h0.57v4.92a2,2,0,0,1-.56,1.49h0Zm7.05-4.46a1.46,1.46,0,0,0-.49-1.13,1.9,1.9,0,0,0-1.33-.44,2,2,0,0,0-1.29.37,1.12,1.12,0,0,0-.46.92,1.07,1.07,0,0,0,.43.87,4,4,0,0,0,1.48.61,4.3,4.3,0,0,1,1.69.76,1.57,1.57,0,0,1,.58,1.27,1.54,1.54,0,0,1-.67,1.31,2.87,2.87,0,0,1-1.72.49,3.14,3.14,0,0,1-1.8-.52,1.65,1.65,0,0,1-.74-1.51v0h0.52a1.31,1.31,0,0,0,.6,1.19,2.56,2.56,0,0,0,1.41.39,2.23,2.23,0,0,0,1.32-.36,1.11,1.11,0,0,0,.5-0.95,1.15,1.15,0,0,0-.42-0.92,3.89,3.89,0,0,0-1.47-.63,4.64,4.64,0,0,1-1.71-.74,1.47,1.47,0,0,1-.58-1.22,1.55,1.55,0,0,1,.65-1.28,2.68,2.68,0,0,1,1.67-.5,2.45,2.45,0,0,1,1.71.59,1.8,1.8,0,0,1,.63,1.44v0h-0.52Z" transform="translate(-29.8 -27.28)" fill="#4e4e52"/></svg>