<svg id="Layer_1" data-name="Layer 1" xmlns="http://www.w3.org/2000/svg" viewBox="0 0 614.36 90.83"><title>logo_stamtons</title><path d="M269.41,254c-2,0-3.58,0-4.75-.05q-2.63-.06-4.86-0.18a323.44,323.44,0,0,1-10.47,36.65Q242,312,230.16,341.19h20q1.21-6.28,2.69-12.2c1-3.94,10.65-37.58,12.56-43.44q2-6.05,4-11.68V254Z" transform="translate(-113.77 -252.22)" fill="#1f4889"/><path d="M295.87,295.85q-7.34-21.67-12.65-42.08-1.93.12-4.11,0.18c-1.41,0-3.53.06-6.34,0.06v19.88c1.27,4.07,2.53,8.19,3.77,12.39,1.75,5.94,10.81,39.4,11.83,43.29s1.94,7.76,2.75,11.62h21.73Q303.21,317.52,295.87,295.85Z" transform="translate(-113.77 -252.22)" fill="#0072bc"/><path d="M115.76,339.55l-2-15.46a56.15,56.15,0,0,0,10.12,3.35,43.68,43.68,0,0,0,9.57,1.12q6.7,0,10.66-2.72a8.45,8.45,0,0,0,4-7.31q0-5.8-12.26-14l-2.11-1.39q-11.72-8-15.37-13.32a21.25,21.25,0,0,1-3.65-12.29q0-11.47,7.94-18.15t21.59-6.67a73.28,73.28,0,0,1,8.15.45,67.76,67.76,0,0,1,7.91,1.36L161.9,270a45.75,45.75,0,0,0-8.3-2.66,39.83,39.83,0,0,0-8.43-.91q-6.52,0-10.06,2.39a7.72,7.72,0,0,0-3.53,6.79,9.93,9.93,0,0,0,2.33,5.92,25.84,25.84,0,0,0,6.73,5.92q1.93,1.27,5.56,3.56,8.7,5.5,11.11,7.85a29.67,29.67,0,0,1,6.37,8.43,21.24,21.24,0,0,1,1.9,9.09,23.21,23.21,0,0,1-8.67,18.81q-8.67,7.16-22.86,7.16a63.9,63.9,0,0,1-9.54-.69A48.87,48.87,0,0,1,115.76,339.55Z" transform="translate(-113.77 -252.22)" fill="#1f4889"/><path d="M194.17,341.19q1-9.6,1.54-21.53t0.51-27.81q0-10.75-.06-15.79t-0.3-9.21q-8.09.12-14.37,0.75a82.85,82.85,0,0,0-11.23,1.84l1.87-15.34h65.71l1.69,15.34a82.88,82.88,0,0,0-11.26-1.84q-6.31-.63-14.4-0.75-0.24,5.13-.33,10.6t-0.09,11.32q0,18.12.51,30.38t1.6,22H194.17Z" transform="translate(-113.77 -252.22)" fill="#1f4889"/><path d="M329.86,254.09H353q4,13.29,9.36,28.08T374,312.86q5.8-14.86,10.66-29.53t8.91-29.23h22.77q1.87,26.57,5,48.62a338.75,338.75,0,0,0,7.49,38.47H407.77q-0.54-19.57-2-36.15t-3.71-30.89q-7,18.18-12.59,34.91t-9.75,32.13h-13q-4.47-16.37-10.3-33.22t-13.08-34.18q-1.69,14.13-3,31.07t-2.11,36.33H318.14q4-19.14,7-40.92T329.86,254.09Z" transform="translate(-113.77 -252.22)" fill="#1f4889"/><path d="M451.68,341.19q1-9.6,1.54-21.53t0.51-27.81q0-10.75-.06-15.79t-0.3-9.21q-8.09.12-14.37,0.75a82.84,82.84,0,0,0-11.23,1.84l1.87-15.34h65.71L497,269.44a82.86,82.86,0,0,0-11.26-1.84q-6.31-.63-14.41-0.75-0.24,5.13-.33,10.6t-0.09,11.32q0,18.12.51,30.38t1.6,22H451.68Z" transform="translate(-113.77 -252.22)" fill="#1f4889"/><path d="M539.21,252.22q18.24,0,28.87,12.17t10.63,33.25q0,21.14-10.6,33.28t-28.9,12.14q-18.24,0-28.78-12.14t-10.54-33.28q0-21.14,10.54-33.28T539.21,252.22Zm0,14.49q-10.39,0-15.58,7.73t-5.19,23.19q0,15.4,5.19,23.16t15.58,7.76q10.39,0,15.7-7.82t5.31-23.1q0-15.34-5.28-23.13T539.21,266.72Z" transform="translate(-113.77 -252.22)" fill="#1f4889"/><path d="M590,254.09h20.78q9.72,17.33,19.09,33t18.6,30.17q-0.18-22.59-.72-37.87t-1.51-25.31h19.21q-1,10.39-1.57,23.67t-0.54,29.17q0,7.85.24,16.37t0.72,17.88H644.18q-10.27-18.42-19.63-33.94t-18.12-28.63v7.55q0,19,.48,32.31t1.51,22.71H589q1.15-11.11,1.69-23T591.21,294q0-8.39-.3-18.15T590,254.09Z" transform="translate(-113.77 -252.22)" fill="#1f4889"/><path d="M678.3,339.55l-2-15.46a56.14,56.14,0,0,0,10.12,3.35,43.7,43.7,0,0,0,9.57,1.12q6.7,0,10.66-2.72a8.45,8.45,0,0,0,4-7.31q0-5.8-12.26-14l-2.11-1.39q-11.72-8-15.37-13.32a21.25,21.25,0,0,1-3.65-12.29q0-11.47,7.94-18.15t21.59-6.67a73.27,73.27,0,0,1,8.15.45,67.71,67.71,0,0,1,7.91,1.36L724.44,270a45.77,45.77,0,0,0-8.3-2.66,39.83,39.83,0,0,0-8.43-.91q-6.52,0-10.06,2.39a7.72,7.72,0,0,0-3.53,6.79,9.93,9.93,0,0,0,2.32,5.92,25.85,25.85,0,0,0,6.73,5.92q1.93,1.27,5.56,3.56,8.7,5.5,11.11,7.85a29.68,29.68,0,0,1,6.37,8.43,21.24,21.24,0,0,1,1.9,9.09,23.21,23.21,0,0,1-8.67,18.81q-8.67,7.16-22.86,7.16a63.89,63.89,0,0,1-9.54-.69A48.88,48.88,0,0,1,678.3,339.55Z" transform="translate(-113.77 -252.22)" fill="#1f4889"/></svg>