<svg id="Isolation_Mode" data-name="Isolation Mode" xmlns="http://www.w3.org/2000/svg" viewBox="0 0 213.27 63.99"><title>logo_venden_white</title><path d="M715,293H713.9l-3.84,0h-1.3v0.21c0,1.67.21,3.59,0.25,4.82,0.07,3,.1,7.49.1,11.9,0,4.05,0,8-.07,10.73-5.39-4.45-25.34-25.17-29.19-28.41l-0.33-.27v0.43c0.13,4.88.2,10.74,0.19,16.36,0,5.46-.05,10.69-0.18,14.58a5.19,5.19,0,0,1-2.26,4.48l-0.63.37h1.64l3.77,0h1.43l0-.19c0-.24,0-0.53,0-0.81,0-1.34-.13-3-0.12-4-0.13-4.61-.19-10.5-0.19-15.27,0-2.86,0-5.34.06-6.88,8.55,8.91,20.25,19.8,28.72,28.72l0.35,0.38,0-.51c-0.06-2.18-.08-5.38-0.08-9.1,0-6.8.09-15.35,0.3-22.68a4.8,4.8,0,0,1,2.61-4.46Zm-77.84,26.78h0a12.51,12.51,0,0,1-4.77,2.93,18,18,0,0,1-6.22,1.09H625a12.49,12.49,0,0,1-5.09-.72c-0.67-.26-0.88-1.3-0.91-2.2,0-.46,0-1.12,0-2,0-3.49,0-10.2.15-20.1a2.11,2.11,0,0,1,1.49-.67,26.16,26.16,0,0,1,5.38-.58,16.82,16.82,0,0,1,6.47,1.16,13,13,0,0,1,6,5,13.14,13.14,0,0,1,2.21,7.3,12.26,12.26,0,0,1-3.54,8.76M640.74,300a20.92,20.92,0,0,0-12.51-4.35H612l-0.08.38a3.86,3.86,0,0,1,2.28,3.52c0.16,3.55.23,7.12,0.23,10.73s-0.09,7.21-.23,10.86c-0.08,1.55-.1,2.62-0.1,3.61,0,0.21,0,.44,0,0.66v0.19h0.2c8.55,0,11.48,0,12.48,0h0.46a20,20,0,0,0,12.54-4.4c4.06-3.13,6.14-6.83,6.13-11a12.63,12.63,0,0,0-5.15-10.2m-32.07-4.33-3.35,0v0H604v0.19c0,3,.11,3.64.15,4.86q0.1,5.1.11,10c0,2.31,0,4.59-.06,6.81l-13-11.51q-7.74-6.95-13-11.9l-0.33-.32v0.47c0.13,4.9.17,9.59,0.17,14.05s0,8.52-.15,12.46c-0.05,2.21-.89,3.81-2.4,4.52l0.09,0.38h6.2v-0.19c0-2.75-.39-3.67-0.38-4.87-0.11-4.6-.16-8.51-0.16-11.7,0-2,0-3.72.06-5.17q13,11,25.75,23.52l0.34,0.34v-0.49c-0.05-2.24-.09-4.83-0.09-7.75q0-7.8.27-18.78a5.26,5.26,0,0,1,.92-3,5.51,5.51,0,0,1,1.61-1.54l0.61-.37h-2M675.88,321l0.19-.67-0.51.46c-2,1.82-3.23,2.76-7.16,2.78-1.36,0-7.33-.24-8.59-0.24-1,0-1.11,0-1.26,0l-1-.05c-1.51-.1-2.13-0.74-2.14-2.15V310.91c1.36,0,2.88,0,4.55,0s3.66,0,5.72,0a6.64,6.64,0,0,1,3,.71,5.65,5.65,0,0,1,1.79,1.37l0.37,0.47,0-.6c0-.58,0-1.13,0-1.65a20,20,0,0,1,.21-3.29l0.07-.42-0.35.21a8.56,8.56,0,0,1-4.22.79H655.4V298.19s0-.12.47-0.14q2.42-.08,5.44-0.08l4.27,0a9.83,9.83,0,0,1,4.55,1.14,7.42,7.42,0,0,1,2.38,1.93l0.35,0.5v-0.62c0-.48,0-0.95,0-1.39a25.29,25.29,0,0,1,.23-3.64l0-.22H646.76v0.4l0.16,0c2.24,0.39,3.3,1.6,3.39,3.78,0.11,4.08.15,7.81,0.15,11.18,0,3.84-.06,7.2-0.19,10.1a7.26,7.26,0,0,1-1.7,4.38l-0.35.37,0.5,0c2.93-.19,4-0.26,7.68-0.26,4.83,0,8.11.55,11.15,0.56l0.92,0a8,8,0,0,0,5.3-1.84,7.66,7.66,0,0,0,2-2.9c0-.15.09-0.29,0.13-0.4m-109.1,2.57c-1.37,0-7.35-.24-8.6-0.24-1,0-1.12,0-1.26,0l-1-.05c-1.49-.1-2.12-0.74-2.15-2.15V310.91c1.38,0,2.89,0,4.55,0s3.65,0,5.72,0a6.63,6.63,0,0,1,3,.71,5.78,5.78,0,0,1,1.79,1.37l0.37,0.47,0-.61c0-.57,0-1.12,0-1.63a18.94,18.94,0,0,1,.23-3.31l0.06-.42-0.36.21a8.61,8.61,0,0,1-4.22.8H553.76V298.19s0-.12.48-0.16q2.42-.06,5.45-0.06l4.26,0a9.75,9.75,0,0,1,4.56,1.15,7.51,7.51,0,0,1,2.38,1.92l0.36,0.51,0-.62c0-.49,0-1,0-1.4a23.88,23.88,0,0,1,.23-3.63l0-.22H545.11v0.4l0.16,0c2.24,0.4,3.31,1.6,3.39,3.78,0.1,4.08.16,7.81,0.15,11.18,0,3.84-.07,7.2-0.2,10.1a7.22,7.22,0,0,1-1.7,4.38l-0.36.37,0.5,0c2.95-.19,4-0.26,7.67-0.26,4.84,0,8.11.55,11.16,0.56l0.92,0a8,8,0,0,0,5.29-1.84,7.66,7.66,0,0,0,2-2.9c0-.15.09-0.29,0.13-0.4l0.18-.69-0.5.48c-2,1.82-3.25,2.77-7.15,2.78m-20.29-30.77c-1.55.06-1.9,0.07-2.22,0.07l-2.13-.06,0,0.19v-0.19c-2.34,0-3.91,3.23-4.33,4.05-3.92,8.22-7.31,14.83-12.55,25l-12.65-25c-0.45-.79-1.88-4-4.24-4-1.84.07-2.54,0.1-3.38,0.1s-1.46,0-3-.08l-0.07.38a8.32,8.32,0,0,1,4.42,3.85c6.5,11,13.7,25.79,17.33,32.79l0.17,0.33,0.17-.33c3.77-7.23,12.32-21.9,18-32.82a8.11,8.11,0,0,1,4.64-3.85Z" transform="translate(-501.87 -266.22)" fill="#fff"/><path d="M610.3,266.22c1.2,0,3.89,2.19,3.89,2.19s-3.58,4.15-3.58,14.44c0,0.33-.14.33-0.17,0,0-10.35-4-14.37-4-14.37s2.63-2.26,3.83-2.26" transform="translate(-501.87 -266.22)" fill="#fff"/><path d="M620.55,272.22c-5.22,2.45-7.32,8-8.85,13.45-0.22.75-.22,1-0.06,0.87,1.74-6.48,7.72-12.7,17.06-10.64a13.84,13.84,0,0,0-5.61-3.6,3.27,3.27,0,0,0-2.54-.09" transform="translate(-501.87 -266.22)" fill="#fff"/><path d="M612.89,289.25c-0.11.32-.37,0.82-0.1,0.63a12.5,12.5,0,0,1,17.49-5.26c3,1.75,3.38,2.33,4.11,2.64,1.18,0.5,6.38.7,6.38,0.7-5.2-10.52-21.69-11.41-27.88,1.3" transform="translate(-501.87 -266.22)" fill="#fff"/><path d="M600.31,272.22c5.23,2.45,7.33,8,8.85,13.45,0.22,0.75.22,1,0,.87-1.73-6.48-7.71-12.7-17-10.64a13.7,13.7,0,0,1,5.61-3.6,3.26,3.26,0,0,1,2.53-.09" transform="translate(-501.87 -266.22)" fill="#fff"/><path d="M608,289.25c0.11,0.32.36,0.82,0.1,0.63a12.49,12.49,0,0,0-17.49-5.26c-3.05,1.75-3.39,2.33-4.11,2.64-1.19.5-6.39,0.7-6.39,0.7,5.21-10.52,21.69-11.41,27.89,1.3" transform="translate(-501.87 -266.22)" fill="#fff"/></svg>