<svg id="Layer_1" data-name="Layer 1" xmlns="http://www.w3.org/2000/svg" viewBox="0 0 609.88 149.45"><defs><style>.cls-1{fill:#231f20;}</style></defs><title>logo_tecco</title><path class="cls-1" d="M116,222.52h94.84V250H177.26V369.19H148.95V250H116V222.52Z" transform="translate(-116.03 -222.52)"/><path class="cls-1" d="M332.26,322.83H244.82q1.89,11.56,10.12,18.4t21,6.83a36.29,36.29,0,0,0,26.22-10.67l22.93,10.77a54.14,54.14,0,0,1-20.54,18q-12,5.83-28.42,5.83-25.52,0-41.58-16.1T218.5,315.55q0-24.82,16-41.23t40.13-16.4q25.62,0,41.68,16.4t16.05,43.32ZM305,301.39a27.31,27.31,0,0,0-10.64-14.76A30.84,30.84,0,0,0,276,281a32.59,32.59,0,0,0-20,6.38q-5.39,4-10,14.06h59Z" transform="translate(-116.03 -222.52)"/><path class="cls-1" d="M467.36,282.64l-22.66,12.46q-6.39-6.68-12.63-9.27a37.94,37.94,0,0,0-14.62-2.59q-15.27,0-24.71,9.11t-9.43,23.34q0,13.84,9.08,22.6t23.86,8.76q18.27,0,28.45-12.46l21.46,14.69Q448.72,372,416.92,372,388.3,372,372.1,355t-16.2-39.68a55.85,55.85,0,0,1,29.86-49.85,65.62,65.62,0,0,1,31.56-7.58,64,64,0,0,1,29,6.43A55.07,55.07,0,0,1,467.36,282.64Z" transform="translate(-116.03 -222.52)"/><path class="cls-1" d="M596.35,282.64l-22.66,12.46q-6.39-6.68-12.63-9.27a37.94,37.94,0,0,0-14.62-2.59q-15.27,0-24.7,9.11t-9.43,23.34q0,13.84,9.08,22.6t23.86,8.76q18.27,0,28.45-12.46l21.46,14.69Q577.7,372,545.9,372q-28.62,0-44.82-16.95t-16.2-39.68a55.85,55.85,0,0,1,29.86-49.85,65.62,65.62,0,0,1,31.56-7.58,64,64,0,0,1,29,6.43A55.08,55.08,0,0,1,596.35,282.64Z" transform="translate(-116.03 -222.52)"/><path class="cls-1" d="M668.38,257.92a57.5,57.5,0,0,1,28.86,7.68,56.29,56.29,0,0,1,28.66,49.25,57,57,0,0,1-7.63,28.71,55,55,0,0,1-20.79,20.89,57.41,57.41,0,0,1-29,7.53,54.11,54.11,0,0,1-39.83-16.6q-16.5-16.6-16.5-40.33,0-25.43,18.65-42.37Q647.14,257.92,668.38,257.92Zm0.45,25.62a28,28,0,0,0-21.12,8.82q-8.44,8.82-8.44,22.58,0,14.16,8.34,22.93t21.12,8.77A28.21,28.21,0,0,0,690,337.78q8.49-8.87,8.49-22.83t-8.34-22.68Q681.81,283.55,668.83,283.54Z" transform="translate(-116.03 -222.52)"/></svg>